<svg xmlns="http://www.w3.org/2000/svg" width="1600" height="1000" viewBox="0 0 1600 1000">
  <defs>
    <linearGradient id="hero" x1="0" y1="0" x2="1" y2="1">
      <stop offset="0" stop-color="#17243A"/>
      <stop offset="1" stop-color="#234A7D"/>
    </linearGradient>
    <linearGradient id="blueCard" x1="0" y1="0" x2="1" y2="1">
      <stop offset="0" stop-color="#2F6FED"/>
      <stop offset="1" stop-color="#5C8DF1"/>
    </linearGradient>
    <filter id="homeShadow" x="-20%" y="-20%" width="140%" height="140%">
      <feDropShadow dx="0" dy="4" stdDeviation="11" flood-color="#17243A" flood-opacity="0.08"/>
    </filter>
    <style>
      .t { font-family: Inter, "Microsoft YaHei", "PingFang SC", sans-serif; fill: #17243A; }
      .white { fill: #FFFFFF; }
      .muted { fill: #6B788B; }
      .tiny { font-size: 12px; }
      .small { font-size: 14px; }
      .body { font-size: 16px; }
      .h2 { font-size: 19px; font-weight: 750; }
      .title { font-size: 29px; font-weight: 780; }
      .label { font-size: 13px; font-weight: 650; }
      .line { stroke: #E1E7EE; stroke-width: 1; }
    </style>
  </defs>

  <rect width="1600" height="1000" fill="#F4F6F9"/>

  <!-- Branded sidebar -->
  <rect x="0" y="0" width="238" height="1000" fill="#17243A"/>
  <g transform="translate(24,24)">
    <rect width="48" height="48" rx="11" fill="#243751"/>
    <path d="M10 18L24 11L38 18M24 14V37M15 39H33" fill="none" stroke="#FFFFFF" stroke-width="3" stroke-linecap="round" stroke-linejoin="round"/>
    <circle cx="10" cy="18" r="4" fill="#2F6FED" stroke="#FFFFFF" stroke-width="1.5"/>
    <circle cx="24" cy="11" r="4" fill="#795CC5" stroke="#FFFFFF" stroke-width="1.5"/>
    <circle cx="38" cy="18" r="4" fill="#2E9B72" stroke="#FFFFFF" stroke-width="1.5"/>
    <path d="M6 23c1 7 5 10 10 10s9-3 10-10M22 23c1 7 5 10 10 10s9-3 10-10" fill="none" stroke="#DCE7FA" stroke-width="2"/>
  </g>
  <text class="t white" x="84" y="48" font-size="20" font-weight="850">LEXCYBER</text>
  <text class="t" x="84" y="66" font-size="10" fill="#91A3BB">证据有源 · 规则有版</text>

  <text class="t" x="24" y="112" font-size="11" fill="#71859F">工作台</text>
  <rect x="14" y="128" width="210" height="46" rx="9" fill="#2F6FED"/>
  <path d="M31 145h16v13H31zM34 142h10l3 3" fill="none" stroke="#FFFFFF" stroke-width="1.8"/>
  <text class="t white body" x="62" y="157" font-weight="700">首页</text>
  <path d="M31 198h16v14H31zM34 195h10l3 3" fill="none" stroke="#9FB0C7" stroke-width="1.8"/>
  <text class="t" x="62" y="209" font-size="15" fill="#C1CDDC">案件中心</text>
  <circle cx="39" cy="254" r="8" fill="none" stroke="#9FB0C7" stroke-width="1.8"/>
  <path d="M35 254l3 3 6-8" fill="none" stroke="#9FB0C7" stroke-width="1.8"/>
  <text class="t" x="62" y="260" font-size="15" fill="#C1CDDC">待办审核</text>
  <rect x="184" y="243" width="25" height="22" rx="11" fill="#D84F5E"/>
  <text class="t white tiny" x="196" y="258" text-anchor="middle">7</text>

  <text class="t" x="24" y="315" font-size="11" fill="#71859F">专业工具</text>
  <path d="M31 340h16v19H31zM34 344h10M34 349h10M34 354h7" fill="none" stroke="#9FB0C7" stroke-width="1.8"/>
  <text class="t" x="62" y="354" font-size="15" fill="#C1CDDC">法源知识库</text>
  <path d="M39 393v18M31 398h16M34 398l-5 8h10zM44 398l-5 8h10z" fill="none" stroke="#9FB0C7" stroke-width="1.8"/>
  <text class="t" x="62" y="406" font-size="15" fill="#C1CDDC">量刑规则</text>
  <path d="M31 456v-12h5v12M39 456v-18h5v18M47 456v-8h5v8" fill="none" stroke="#9FB0C7" stroke-width="1.8"/>
  <text class="t" x="62" y="456" font-size="15" fill="#C1CDDC">统计与审计</text>

  <line x1="24" y1="501" x2="214" y2="501" stroke="#32435B"/>
  <text class="t" x="24" y="533" font-size="11" fill="#71859F">当前工作空间</text>
  <rect x="14" y="548" width="210" height="60" rx="9" fill="#21334C"/>
  <circle cx="40" cy="578" r="13" fill="#354B69"/>
  <text class="t white tiny" x="40" y="582" text-anchor="middle">华</text>
  <text class="t white small" x="62" y="574">华东刑事业务组</text>
  <text class="t" x="62" y="594" font-size="10" fill="#90A2BA">18 个进行中案件</text>
  <text class="t" x="207" y="581" font-size="14" fill="#90A2BA" text-anchor="end">⌄</text>

  <rect x="14" y="868" width="210" height="104" rx="10" fill="#21334C"/>
  <circle cx="44" cy="901" r="18" fill="#354B69"/>
  <text class="t white" x="44" y="907" font-size="14" text-anchor="middle">王</text>
  <text class="t white small" x="74" y="898">王某</text>
  <text class="t" x="74" y="918" font-size="10" fill="#90A2BA">高级审核权限</text>
  <line x1="28" y1="936" x2="210" y2="936" stroke="#354B69"/>
  <text class="t" x="30" y="958" font-size="11" fill="#90A2BA">系统设置</text>
  <text class="t" x="204" y="958" font-size="15" fill="#90A2BA" text-anchor="end">⚙</text>

  <!-- Header -->
  <rect x="238" y="0" width="1362" height="76" fill="#FFFFFF"/>
  <line x1="238" y1="75" x2="1600" y2="75" class="line"/>
  <rect x="274" y="18" width="472" height="40" rx="9" fill="#F3F6F9"/>
  <circle cx="298" cy="38" r="7" fill="none" stroke="#77869A" stroke-width="1.8"/>
  <path d="M303 43l6 6" stroke="#77869A" stroke-width="1.8"/>
  <text class="t muted small" x="323" y="43">搜索案件、案号、当事人或法源</text>
  <rect x="696" y="25" width="36" height="26" rx="6" fill="#FFFFFF" stroke="#D2DAE4"/>
  <text class="t muted tiny" x="714" y="43" text-anchor="middle">⌘K</text>
  <text class="t muted small" x="1342" y="43">使用帮助</text>
  <circle cx="1456" cy="38" r="17" fill="#F3F6F9"/>
  <path d="M1456 28v7M1456 42v1" stroke="#66758A" stroke-width="2" stroke-linecap="round"/>
  <circle cx="1513" cy="38" r="17" fill="#F3F6F9"/>
  <path d="M1506 42h14l-2-4v-4c0-4-2-7-5-7s-5 3-5 7v4z" fill="none" stroke="#66758A" stroke-width="1.5"/>
  <circle cx="1525" cy="24" r="6" fill="#D84F5E"/>
  <text class="t white" x="1525" y="28" font-size="8" text-anchor="middle">2</text>

  <!-- Hero -->
  <rect x="274" y="104" width="1290" height="180" rx="16" fill="url(#hero)" filter="url(#homeShadow)"/>
  <circle cx="1430" cy="110" r="160" fill="none" stroke="#FFFFFF" stroke-opacity="0.05" stroke-width="38"/>
  <circle cx="1360" cy="192" r="92" fill="none" stroke="#FFFFFF" stroke-opacity="0.06" stroke-width="22"/>
  <path d="M1250 218L1347 164L1455 216" fill="none" stroke="#739CE0" stroke-width="3" opacity="0.8"/>
  <circle cx="1250" cy="218" r="10" fill="#2F6FED" stroke="#FFFFFF" stroke-width="3"/>
  <circle cx="1347" cy="164" r="10" fill="#795CC5" stroke="#FFFFFF" stroke-width="3"/>
  <circle cx="1455" cy="216" r="10" fill="#2E9B72" stroke="#FFFFFF" stroke-width="3"/>
  <path d="M1347 174v67M1318 244h58" stroke="#FFFFFF" stroke-width="5" stroke-linecap="round" opacity="0.85"/>

  <text class="t white" x="310" y="152" font-size="27" font-weight="780">上午好，王某</text>
  <text class="t" x="310" y="182" font-size="15" fill="#BBC9DA">今天有 7 项待审核、5 个案件等待材料补充。</text>
  <rect x="310" y="213" width="138" height="42" rx="8" fill="#FFFFFF"/>
  <text class="t small" x="379" y="239" text-anchor="middle" fill="#214F9E" font-weight="700">＋ 新建案件</text>
  <rect x="460" y="213" width="138" height="42" rx="8" fill="#2E4970" stroke="#6C85A7"/>
  <text class="t white small" x="529" y="239" text-anchor="middle">上传卷宗</text>
  <text class="t" x="310" y="272" font-size="11" fill="#8FA5C0">证据有源 · 规则有版 · 审核有痕</text>

  <!-- Workflow overview -->
  <text class="t h2" x="274" y="329">我的工作流</text>
  <text class="t tiny muted" x="1548" y="329" text-anchor="end">查看全部任务 →</text>
  <g filter="url(#homeShadow)">
    <rect x="274" y="350" width="302" height="116" rx="12" fill="#FFFFFF"/>
    <rect x="594" y="350" width="302" height="116" rx="12" fill="#FFFFFF"/>
    <rect x="914" y="350" width="302" height="116" rx="12" fill="#FFFFFF"/>
    <rect x="1234" y="350" width="330" height="116" rx="12" fill="#FFFFFF"/>
  </g>

  <circle cx="310" cy="386" r="18" fill="#EAF1FF"/>
  <path d="M302 383h16v13h-16zM305 380h10l3 3" fill="none" stroke="#2F6FED" stroke-width="1.8"/>
  <text class="t muted small" x="340" y="391">待解析材料</text>
  <text class="t" x="306" y="441" font-size="28" font-weight="800">3</text>
  <text class="t tiny muted" x="345" y="439">1 项 OCR 需校对</text>

  <circle cx="630" cy="386" r="18" fill="#EEE9FD"/>
  <circle cx="630" cy="386" r="8" fill="none" stroke="#795CC5" stroke-width="1.8"/>
  <path d="M626 386l3 3 6-8" fill="none" stroke="#795CC5" stroke-width="1.8"/>
  <text class="t muted small" x="660" y="391">待确认要素</text>
  <text class="t" x="626" y="441" font-size="28" font-weight="800">5</text>
  <text class="t tiny muted" x="665" y="439">共 18 个待确认字段</text>

  <circle cx="950" cy="386" r="18" fill="#E7F7F1"/>
  <path d="M950 376v20M941 381h18M945 381l-5 8h10zM955 381l-5 8h10z" fill="none" stroke="#2E9B72" stroke-width="1.6"/>
  <text class="t muted small" x="980" y="391">待量刑分析</text>
  <text class="t" x="946" y="441" font-size="28" font-weight="800">4</text>
  <text class="t tiny muted" x="985" y="439">2 项规则版本待确认</text>

  <circle cx="1270" cy="386" r="18" fill="#FFECEE"/>
  <path d="M1264 386l4 4 8-10" fill="none" stroke="#D84F5E" stroke-width="2"/>
  <text class="t muted small" x="1300" y="391">待人工审核</text>
  <text class="t" x="1266" y="441" font-size="28" font-weight="800" fill="#D84F5E">7</text>
  <text class="t tiny" x="1305" y="439" fill="#D84F5E">2 项高风险 · 即将超时</text>

  <!-- Priority cases -->
  <rect x="274" y="494" width="858" height="458" rx="14" fill="#FFFFFF" filter="url(#homeShadow)"/>
  <text class="t h2" x="302" y="536">优先案件</text>
  <text class="t tiny muted" x="302" y="560">根据审核风险、截止时间和材料完整度排序</text>
  <rect x="990" y="516" width="114" height="34" rx="7" fill="#F5F7FA"/>
  <text class="t tiny" x="1047" y="538" text-anchor="middle">全部案件 →</text>

  <rect x="292" y="582" width="822" height="43" fill="#F7F9FC"/>
  <text class="t tiny muted" x="312" y="608">案件</text>
  <text class="t tiny muted" x="585" y="608">当前阶段</text>
  <text class="t tiny muted" x="722" y="608">确认度</text>
  <text class="t tiny muted" x="845" y="608">风险</text>
  <text class="t tiny muted" x="955" y="608">更新时间</text>

  <line x1="302" y1="698" x2="1104" y2="698" class="line"/>
  <line x1="302" y1="771" x2="1104" y2="771" class="line"/>
  <line x1="302" y1="844" x2="1104" y2="844" class="line"/>

  <circle cx="318" cy="660" r="17" fill="#EAF1FF"/>
  <text class="t" x="318" y="665" font-size="12" text-anchor="middle" fill="#2F6FED" font-weight="700">张</text>
  <text class="t small" x="348" y="655" font-weight="700">张某涉嫌盗窃案</text>
  <text class="t tiny muted" x="348" y="677">（2026）沪01刑初128号</text>
  <rect x="585" y="647" width="94" height="28" rx="14" fill="#EAF1FF"/>
  <text class="t tiny" x="632" y="666" text-anchor="middle" fill="#2F6FED">要素校对</text>
  <text class="t small" x="722" y="666">8 / 10</text>
  <rect x="845" y="647" width="68" height="28" rx="14" fill="#FFF3DB"/>
  <text class="t tiny" x="879" y="666" text-anchor="middle" fill="#A66008">中风险</text>
  <text class="t tiny muted" x="955" y="666">今天 14:32</text>
  <text class="t muted" x="1088" y="668" font-size="21">›</text>

  <circle cx="318" cy="733" r="17" fill="#FFECEE"/>
  <text class="t" x="318" y="738" font-size="12" text-anchor="middle" fill="#D84F5E" font-weight="700">赵</text>
  <text class="t small" x="348" y="728" font-weight="700">赵某诈骗案</text>
  <text class="t tiny muted" x="348" y="750">（2026）沪01刑初098号</text>
  <rect x="585" y="720" width="94" height="28" rx="14" fill="#FFECEE"/>
  <text class="t tiny" x="632" y="739" text-anchor="middle" fill="#C43C4C">人工审核</text>
  <text class="t small" x="722" y="739">12 / 12</text>
  <rect x="845" y="720" width="68" height="28" rx="14" fill="#FFECEE"/>
  <text class="t tiny" x="879" y="739" text-anchor="middle" fill="#C43C4C">高风险</text>
  <text class="t tiny muted" x="955" y="739">今天 10:18</text>
  <text class="t muted" x="1088" y="741" font-size="21">›</text>

  <circle cx="318" cy="806" r="17" fill="#E7F7F1"/>
  <text class="t" x="318" y="811" font-size="12" text-anchor="middle" fill="#2E9B72" font-weight="700">孙</text>
  <text class="t small" x="348" y="801" font-weight="700">孙某故意伤害案</text>
  <text class="t tiny muted" x="348" y="823">（2026）沪01刑初076号</text>
  <rect x="585" y="793" width="94" height="28" rx="14" fill="#E7F7F1"/>
  <text class="t tiny" x="632" y="812" text-anchor="middle" fill="#248B68">量刑分析</text>
  <text class="t small" x="722" y="812">10 / 11</text>
  <rect x="845" y="793" width="68" height="28" rx="14" fill="#FFF3DB"/>
  <text class="t tiny" x="879" y="812" text-anchor="middle" fill="#A66008">中风险</text>
  <text class="t tiny muted" x="955" y="812">昨天 16:20</text>
  <text class="t muted" x="1088" y="814" font-size="21">›</text>

  <circle cx="318" cy="879" r="17" fill="#FFF3DB"/>
  <text class="t" x="318" y="884" font-size="12" text-anchor="middle" fill="#D98919" font-weight="700">李</text>
  <text class="t small" x="348" y="874" font-weight="700">李某危险驾驶案</text>
  <text class="t tiny muted" x="348" y="896">（2026）沪01刑初121号</text>
  <rect x="585" y="866" width="94" height="28" rx="14" fill="#FFF3DB"/>
  <text class="t tiny" x="632" y="885" text-anchor="middle" fill="#A66008">补充材料</text>
  <text class="t small" x="722" y="885">5 / 9</text>
  <rect x="845" y="866" width="68" height="28" rx="14" fill="#E7F7F1"/>
  <text class="t tiny" x="879" y="885" text-anchor="middle" fill="#248B68">低风险</text>
  <text class="t tiny muted" x="955" y="885">昨天 11:08</text>
  <text class="t muted" x="1088" y="887" font-size="21">›</text>

  <!-- Trust and tasks side panel -->
  <rect x="1154" y="494" width="410" height="272" rx="14" fill="#FFFFFF" filter="url(#homeShadow)"/>
  <text class="t h2" x="1182" y="536">今日审核</text>
  <text class="t tiny" x="1536" y="536" text-anchor="end" fill="#2F6FED">进入审核中心 →</text>
  <rect x="1182" y="563" width="354" height="70" rx="9" fill="#FFF8E7"/>
  <circle cx="1205" cy="586" r="7" fill="#D84F5E"/>
  <text class="t small" x="1222" y="590" font-weight="700">赵某诈骗案</text>
  <text class="t tiny" x="1222" y="612" fill="#A66008">金额冲突 · 剩余 2 小时</text>
  <text class="t muted" x="1513" y="596" font-size="20">›</text>
  <rect x="1182" y="643" width="354" height="70" rx="9" fill="#F7F9FC"/>
  <circle cx="1205" cy="666" r="7" fill="#D98919"/>
  <text class="t small" x="1222" y="670" font-weight="700">张某涉嫌盗窃案</text>
  <text class="t tiny muted" x="1222" y="692">3 项调节幅度待复核</text>
  <text class="t muted" x="1513" y="676" font-size="20">›</text>
  <text class="t tiny muted" x="1182" y="742">今日已完成 4 项 · 平均审核用时 18 分钟</text>

  <rect x="1154" y="786" width="410" height="166" rx="14" fill="#FFFFFF" filter="url(#homeShadow)"/>
  <text class="t h2" x="1182" y="826">可信工作台</text>
  <text class="t tiny muted" x="1182" y="849">系统始终区分机器建议与人工裁量</text>
  <g transform="translate(1182,872)">
    <circle cx="8" cy="8" r="8" fill="#2F6FED"/>
    <text class="t white" x="8" y="12" font-size="9" text-anchor="middle">1</text>
    <text class="t tiny" x="24" y="12" font-weight="700">证据有源</text>
    <line x1="104" y1="8" x2="128" y2="8" stroke="#BFC9D5"/>
    <circle cx="140" cy="8" r="8" fill="#795CC5"/>
    <text class="t white" x="140" y="12" font-size="9" text-anchor="middle">2</text>
    <text class="t tiny" x="156" y="12" font-weight="700">规则有版</text>
    <line x1="236" y1="8" x2="260" y2="8" stroke="#BFC9D5"/>
    <circle cx="272" cy="8" r="8" fill="#2E9B72"/>
    <text class="t white" x="272" y="12" font-size="9" text-anchor="middle">3</text>
    <text class="t tiny" x="288" y="12" font-weight="700">审核有痕</text>
  </g>
  <rect x="1182" y="907" width="354" height="27" rx="7" fill="#F3F6FA"/>
  <text class="t tiny muted" x="1359" y="925" text-anchor="middle">机器给出依据 · 人保留裁量</text>
</svg>
